<?xml version="1.0" encoding="UTF-8"?>
<svg id="Layer_2" data-name="Layer 2" xmlns="http://www.w3.org/2000/svg" viewBox="0 0 341.74 163.46">
  <defs>
    <style>
      .cls-1 {
        fill: #222;
      }

      @media (prefers-color-scheme: dark) {
        .cls-1 {
          fill: #fff;
        }
      }
    </style>
  </defs>
  <g id="Layer_3" data-name="Layer 3">
    <g>
      <path class="cls-1" d="M78.75,16.44c-.14,2.8-.1,6.12.1,9.95.21,3.83.24,6.73.1,8.72-.14,1.09-.24,2.67-.31,4.72-.07,2.05-.17,4.12-.31,6.2-.14,2.09-.24,4.07-.31,5.95-.07,1.88-.1,3.27-.1,4.15,0,1.98-.1,5.45-.31,10.41-.21,4.96-.41,10.31-.62,16.05s-.45,11.23-.72,16.46c-.27,5.23-.48,9.04-.62,11.43-.27,4.17-.38,8.36-.31,12.56.07,4.2-.07,8.43-.41,12.66,0,1.09.08,2.6.26,4.51.17,1.91.29,3.91.36,6,.07,2.09.14,4.03.21,5.84.07,1.81.1,3.16.1,4.05-.14,1.09-.56,2.44-1.28,4.05-.72,1.61-2.75,2.41-6.1,2.41h-10.51c-3.52,0-7.43-.14-11.74-.41-4.51-.14-8.61-.31-12.3-.51s-7.73-.24-12.1-.1c-3.62.27-7.01.48-10.15.62-3.15.14-5.43.07-6.87-.21-1.57-.27-2.77-.73-3.59-1.38-.82-.65-1.23-2.14-1.23-4.46,0-1.09.07-2.14.21-3.13.14-.99.27-2.07.41-3.23,0-.96.08-2.97.26-6.05.17-3.08.32-6.41.46-10,.14-3.59.24-7.06.31-10.41.07-3.35.1-5.88.1-7.59,0-1.98.07-4.26.21-6.82.14-2.56.14-5.45,0-8.66,0-1.09.03-2.63.1-4.61.07-1.98.1-3.45.1-4.41.14-5.88.21-11.62.21-17.23s-.14-11.35-.41-17.23c-.27-6.15-.41-12.27-.41-18.35v-18.46c0-1.71.07-3.38.21-5.02.14-1.64.34-3.25.62-4.82.27-1.37.65-2.65,1.13-3.85.48-1.2,1.5-2.07,3.08-2.61,1.57-.41,2.9-.27,4,.41,1.09.68,2.19,1.44,3.28,2.26,1.09.96,2.1,1.9,3.02,2.82l2.92,2.92c2.67,2.8,5.4,5.52,8.2,8.15,2.8,2.63,5.47,5.42,8,8.36l.41.51c1.09,1.09,1.88,1.64,2.36,1.64s1.3-.55,2.46-1.64c2.67-2.67,5.28-5.3,7.84-7.9,2.56-2.6,5.11-5.23,7.64-7.9,1.98-1.98,3.81-3.88,5.49-5.69,1.67-1.81,3.44-3.71,5.28-5.69.41-.27.82-.55,1.23-.82.41-.27.82-.55,1.23-.82.82-.27,1.9-.31,3.23-.1s2.37.65,3.13,1.33c1.09.82,1.67,1.69,1.74,2.61.07.92.17,2.17.31,3.74.27,1.71.44,3.33.51,4.87.07,1.54.03,2.79-.1,3.74Z"/>
      <path class="cls-1" d="M166.93,7.21c.55,4.51-.24,8.92-2.36,13.23-.14.41-.31.79-.51,1.13-.21.34-.45.65-.72.92-1.09,1.09-2.14,1.76-3.13,2-.99.24-3.02.36-6.1.36-2.12,0-4.26-.03-6.41-.1-2.15-.07-4.36-.1-6.61-.1,0,.55-.07.96-.21,1.23v10.97c0,3.42-.14,6.77-.41,10.05-.14.68-.07,1.64.21,2.87.27,3.49.38,6.96.31,10.41-.07,3.45-.17,6.85-.31,10.2-.14,2.39-.27,4.8-.41,7.23-.14,2.43-.21,4.84-.21,7.23-.14,4.79-.17,9.52-.1,14.2.07,4.68.24,9.48.51,14.41.27,4.51.38,8.92.31,13.23-.07,4.31-.24,8.72-.51,13.23-.14,2.53-.17,5.09-.1,7.69.07,2.6.03,5.13-.1,7.59v1.9c0,.58-.07,1.21-.21,1.9,0,1.23-.79,2.09-2.36,2.56-6.02,1.09-11.96,1.03-17.84-.21-1.37-.27-2.15-1.26-2.36-2.97-.41-4.65-.68-9.28-.82-13.89-.14-4.61-.14-9.28,0-14v-6.31c0-2.08-.14-4.19-.41-6.31-.27-2.8-.45-5.64-.51-8.51-.07-2.87-.24-5.78-.51-8.72-.27-2.53-.41-4.87-.41-7.02s.07-4.87.21-8.15c.27-1.98.38-3.86.31-5.64-.07-1.78-.1-3.66-.1-5.64v-4.77c0-1.33.14-3.26.41-5.79.14-.68.21-1.37.21-2.05v-2.15c-.14-2.67-.17-5.25-.1-7.74.07-2.49-.04-5.08-.31-7.74-.27-3.76-.27-7.55,0-11.38.14-1.57.17-3.04.1-4.41-.07-1.37-.1-2.84-.1-4.41h-4.2c-1.44,0-2.84.07-4.2.21-4.03,0-8.03-.21-12-.62-2.39-.27-3.93-.62-4.61-1.03-.68-.41-1.03-1.2-1.03-2.36,0-.55.07-1.45.21-2.72.14-1.26.24-2.63.31-4.1.07-1.47.17-2.87.31-4.2.14-1.33.21-2.34.21-3.02,0-.55.27-1.09.82-1.64,1.37-1.71,3.9-2.56,7.59-2.56,3.76.14,7.5.14,11.23,0,3.73-.14,7.47-.14,11.23,0,4.51.27,9.07.34,13.69.21,4.61-.14,9.24-.07,13.89.21,1.98.14,3.98.29,6,.46,2.02.17,3.98.39,5.9.67,2.39.41,4.02.91,4.87,1.49.85.58,1.35,1.42,1.49,2.51Z"/>
      <path class="cls-1" d="M251.43,87.6c-.27,2.26-.45,5.06-.51,8.41-.07,3.35-.14,6.63-.21,9.84-.07,3.21-.1,6.15-.1,8.82v5.23c0,.82-.04,1.95-.1,3.38-.07,1.44-.14,2.89-.21,4.36-.07,1.47-.1,2.91-.1,4.31v3.33c0,.68.03,1.79.1,3.33.07,1.54.14,3.18.21,4.92.07,1.74.14,3.42.21,5.02.07,1.61.1,2.72.1,3.33v3.13c0,1.54-.21,2.92-.62,4.15,0,1.37-.97,2.38-2.92,3.02s-4.36,1.04-7.23,1.18c-2.87.14-5.9.1-9.07-.1s-5.93-.51-8.25-.92c-2.94-.41-5.96-1.32-9.07-2.72-3.11-1.4-6.05-3.04-8.82-4.92-2.77-1.88-5.38-3.95-7.84-6.2s-4.55-4.51-6.25-6.77c-3.21-4.03-5.83-8.08-7.84-12.15-2.02-4.07-3.59-7.98-4.72-11.74-1.13-3.76-1.9-7.4-2.31-10.92-.41-3.52-.62-6.68-.62-9.48-.27-3.49-.31-6.63-.1-9.43.21-2.8.44-5.19.72-7.18,0-.27.03-.55.1-.82.07-.27.1-.55.1-.82.27-2.26.62-4.43,1.03-6.51.41-2.08.82-4.19,1.23-6.31.14-.68.29-1.38.46-2.1.17-.72.32-1.42.46-2.1.55-2.39,1.13-4.77,1.74-7.13s1.5-4.87,2.67-7.54c1.23-3.21,2.51-6.08,3.85-8.61,1.33-2.53,2.78-4.92,4.36-7.18,6.7-9.77,12.92-16.41,18.66-19.89l2.97-1.95c2.12-1.37,4-2.58,5.64-3.64,1.64-1.06,3.23-1.98,4.77-2.77,1.54-.79,3.16-1.42,4.87-1.9,1.71-.48,3.73-.85,6.05-1.13,3.62-.68,6.15-.58,7.59.31,1.44.89,2.36,1.91,2.77,3.08l.41.82c.55,1.09,1.13,2.73,1.74,4.92.62,2.19.38,5.02-.72,8.51v.21c-.55.82-.99,1.49-1.33,2-.34.51-.8.97-1.38,1.38-.58.41-1.28.79-2.1,1.13-.82.34-2.02.79-3.59,1.33-1.09.41-1.93.77-2.51,1.08-.58.31-1.15.6-1.69.87-.41.27-.86.51-1.33.72-.48.21-1.09.51-1.85.92-4.51,2.26-8.53,5.28-12.05,9.07-3.52,3.79-7.06,8.77-10.61,14.92-.68,1.23-1.33,2.48-1.95,3.74-.62,1.27-1.23,2.44-1.85,3.54-4.17,9.5-6.19,18.32-6.05,26.46,0,1.09-.07,1.95-.21,2.56v1.64c0,1.23.14,2.91.41,5.02.27,2.12.58,4.27.92,6.46.34,2.19.73,4.19,1.18,6,.44,1.81.8,3.06,1.08,3.74,1.37,4.92,2.89,8.92,4.56,12,1.67,3.08,4.36,6.02,8.05,8.82,2.39,1.98,4.32,3.38,5.79,4.2,1.47.82,2.89,1.57,4.26,2.26l.82.51c1.09.55,2.77.82,5.02.82.14-2.67.32-5.83.56-9.48.24-3.66.43-7.19.56-10.61.14-3.42.27-6.6.41-9.54.14-2.94.27-5.19.41-6.77.14-.55.14-1.09,0-1.64-.14-1.09-.39-1.96-.77-2.61-.38-.65-1.52-1.04-3.44-1.18-1.57.14-2.43.21-2.56.21h-2.46c-.27,0-.74.04-1.38.1-.65.07-1.18.1-1.59.1-1.98-.27-3.74-.62-5.28-1.03s-2.24-1.81-2.1-4.2v-7.79c0-1.09.07-2.34.21-3.74.14-1.4.72-2.58,1.74-3.54.96-.82,2.24-1.18,3.85-1.08,1.61.1,3.47.33,5.59.67,2.53.14,4.63.21,6.31.21h4.92c1.61,0,3.25.04,4.92.1,1.67.07,3.71.17,6.1.31,2.39.27,3.93,1.35,4.61,3.23.68,1.88.89,4.02.62,6.41Z"/>
      <path class="cls-1" d="M341.46,16.44c-.14,2.8-.1,6.12.1,9.95.21,3.83.24,6.73.1,8.72-.14,1.09-.24,2.67-.31,4.72-.07,2.05-.17,4.12-.31,6.2-.14,2.09-.24,4.07-.31,5.95-.07,1.88-.1,3.27-.1,4.15,0,1.98-.1,5.45-.31,10.41-.21,4.96-.41,10.31-.62,16.05s-.45,11.23-.72,16.46c-.27,5.23-.48,9.04-.62,11.43-.27,4.17-.38,8.36-.31,12.56.07,4.2-.07,8.43-.41,12.66,0,1.09.08,2.6.26,4.51.17,1.91.29,3.91.36,6,.07,2.09.14,4.03.21,5.84.07,1.81.1,3.16.1,4.05-.14,1.09-.56,2.44-1.28,4.05-.72,1.61-2.75,2.41-6.1,2.41h-10.51c-3.52,0-7.43-.14-11.74-.41-4.51-.14-8.61-.31-12.3-.51s-7.73-.24-12.1-.1c-3.62.27-7.01.48-10.15.62-3.15.14-5.43.07-6.87-.21-1.57-.27-2.77-.73-3.59-1.38-.82-.65-1.23-2.14-1.23-4.46,0-1.09.07-2.14.21-3.13.14-.99.27-2.07.41-3.23,0-.96.08-2.97.26-6.05.17-3.08.32-6.41.46-10,.14-3.59.24-7.06.31-10.41.07-3.35.1-5.88.1-7.59,0-1.98.07-4.26.21-6.82.14-2.56.14-5.45,0-8.66,0-1.09.03-2.63.1-4.61.07-1.98.1-3.45.1-4.41.14-5.88.21-11.62.21-17.23s-.14-11.35-.41-17.23c-.27-6.15-.41-12.27-.41-18.35v-18.46c0-1.71.07-3.38.21-5.02.14-1.64.34-3.25.62-4.82.27-1.37.65-2.65,1.13-3.85.48-1.2,1.5-2.07,3.08-2.61,1.57-.41,2.9-.27,4,.41,1.09.68,2.19,1.44,3.28,2.26,1.09.96,2.1,1.9,3.02,2.82l2.92,2.92c2.67,2.8,5.4,5.52,8.2,8.15,2.8,2.63,5.47,5.42,8,8.36l.41.51c1.09,1.09,1.88,1.64,2.36,1.64s1.3-.55,2.46-1.64c2.67-2.67,5.28-5.3,7.84-7.9,2.56-2.6,5.11-5.23,7.64-7.9,1.98-1.98,3.81-3.88,5.49-5.69,1.67-1.81,3.44-3.71,5.28-5.69.41-.27.82-.55,1.23-.82.41-.27.82-.55,1.23-.82.82-.27,1.9-.31,3.23-.1s2.37.65,3.13,1.33c1.09.82,1.67,1.69,1.74,2.61.07.92.17,2.17.31,3.74.27,1.71.44,3.33.51,4.87.07,1.54.03,2.79-.1,3.74Z"/>
    </g>
  </g>
</svg>